PathFileType	4	(X/Y/Z)	/home/abdul/Desktop/myosuite/custom_workspace/IK/output/S4_12_3.trc
DataRate	CameraRate	NumFrames	NumMarkers	Units	OrigDataRate	OrigDataStartFrame	OrigNumFrames
200.0	200.0	67	3	mm	200.0	693	923
Frame#	Time	V_Shoulder			V_Elbow			V_Wrist		
		X1	Y1	Z1	X2	Y2	Z2	X3	Y3	Z3

693	3.46	-79.53194667564452	562.3358889438672	274.9922327733781	-144.92875790636646	435.3414560331702	10.4726012647106	-97.58018249769944	230.86817061516803	80.8131299379449
694	3.465	-79.4980265235947	562.4374424517235	275.019613751917	-145.66146780691003	435.8214223636452	10.452234781341717	-98.96141865082888	231.48251921250335	81.74916382458164
695	3.47	-79.46419044763691	562.5432591178268	275.0476809604588	-146.4131552597194	436.29628959620743	10.444975157185377	-100.37897356920378	232.08177560250732	82.67801382639735
696	3.475	-79.43052294637859	562.653382147069	275.0764297274677	-147.18348774376665	436.765377248008	10.451201151617528	-101.83212841109389	232.66480077316936	83.59814544454923
697	3.48	-79.39711158699599	562.7678451592237	275.10585184736186	-147.9720938798872	437.2280130519456	10.471260982460489	-103.32009256533158	233.23048406834275	84.50802227761699
698	3.485	-79.36404692814415	562.886671887292	275.1359354500273	-148.77856348137618	437.683534760043	10.505470705883432	-104.8420047682061	233.77774650832416	85.40610934993495
699	3.49	-79.33142243330202	563.0098759077481	275.16666488413614	-149.60244771769405	438.1312919234756	10.554112697504648	-106.39693443556395	234.3055440215466	86.2908764326877
700	3.495	-79.29933437450983	563.137460403925	275.198020615067	-150.44325939275637	438.57064764272775	10.617434241970935	-107.98388320593338	234.81287057448094	87.16080134778338
701	3.5	-79.26788172648628	563.2694179636552	275.2299791381647	-151.30047333889377	439.00098028149534	10.695646237820934	-109.6017866896559	235.29876118732784	88.01437324488211
702	3.505	-79.237166051145	563.4057304121437	275.26251290801434	-152.17352692717327	439.4216851381203	10.78892202393215	-111.24951641820454	235.7622948236369	88.8500958423572
703	3.51	-79.20729137256102	563.5463686809177	275.29559028433664	-153.0618206943651	439.8321760685465	10.897396333309256	-112.92588198710214	236.2025971426018	89.66649062340178
704	3.515	-79.17836404247178	563.6912927135518	275.32917549504083	-153.96471908642602	440.2318870550126	11.021164379397884	-114.62963338512651	236.61884310344846	90.46209997895357
705	3.52	-79.15049259643057	563.840451408728	275.36322861689877	-154.8815513179489	440.620273714958	11.16028107950723	-116.35946350180453	237.01025941205216	91.23549028959536
706	3.525	-79.12378760076365	563.9937826010406	275.3977055742244	-155.81161234660294	440.9968147448959	11.314760419301061	-118.1140108045593	237.37612680068156	91.98525493909037
707	3.53	-79.09836149051772	564.1512130798147	275.43255815586866	-156.75416396115804	441.3610132943126	11.484574961674017	-119.89186217628199	237.71578213256913	92.71001725272646
708	3.535	-79.07432839861767	564.3126586460554	275.467734050753	-157.70843598125282	441.71239826497595	11.66965550267303	-121.69155590355874	238.02862032384354	93.40843335416616
709	3.54	-79.05180397649023	564.4780242074992	275.50317690208846	-158.67362756663323	442.05052553137966	11.869890876456708	-123.51158480529062	238.3140960762184	94.07919493502541
710	3.545	-79.03090520644236	564.6472039115972	275.5388263803386	-159.64890863315208	442.3749790784052	12.08512791061285	-125.35039949100519	238.5717254147161	94.72103193192918
711	3.55	-79.01175020611755	564.820081316108	275.57461827490437	-160.63342137239022	442.6853720526548	12.315171532480349	-127.20641173776929	238.80108702560017	95.33271510631188
712	3.555	-78.99445802538709	564.996529596841	275.61048460442163	-161.62628187133066	442.9813477242903	12.55978502645062	-129.0779979742789	239.001823390597	95.91305852274056
713	3.56	-78.97914843606468	565.1764117919474	275.64635374548124	-162.62658182809565	443.26258035659674	12.818690441559633	-130.9635028604173	239.1736417143935	96.46092192203504
714	3.565	-78.96594171486653	565.3595810820235	275.68215057949334	-163.63339035934246	443.52877598088685	13.091569148028219	-132.86124295034386	239.31631464330437	96.97521298594
715	3.57	-78.95495842006785	565.5458811051491	275.71779665734124	-164.64575589451033	443.7796730747515	13.378062540769184	-134.76951042699585	239.42968077389747	97.45488949056225
716	3.575	-78.94631916233756	565.7351463058641	275.75321038138253	-165.66270815171848	444.01504314205954	13.67777288725852	-136.6865768957574	239.5136449512499	97.89896134622356
717	3.58	-78.94014437026068	565.9272023169534	275.788307204281	-166.68326018973806	444.23469119349727	13.99026431656728	-138.6106972249725	239.5681783573703	98.3064925217896
718	3.585	-78.93655405108443	566.1218663727959	275.82299984407354	-167.70641053010056	444.4384561268273	14.315063945773785	-140.54011342094805	239.59331839116547	98.67660285191766
719	3.59	-78.93566754724931	566.3189477529122	275.85719851480025	-168.73114534306097	444.6262110064198	14.651663139424649	-142.473058525111	239.5891683421417	99.00846972601869
720	3.595	-78.9376032892893	566.5182482542449	275.89081117195815	-169.7564406908147	444.7978632419813	14.999518897190471	-144.40776052104655	239.5558968608147	99.30132965804962
721	3.6	-78.94247854570665	566.7195626905938	275.92374377196603	-170.78126482106526	444.9533546667602	15.358055364369278	-146.34244623925042	239.49373722955082	99.55447973654114
722	3.605	-78.95040917044594	566.9226794175364	275.9559005447643	-171.80458050376706	445.09266151585507	15.726665459429814	-148.27534524757888	239.40298643827327	99.76727895452072
723	3.61	-78.96150934860891	567.1273808810728	275.9871842786139	-172.8253474036184	445.21579430557864	16.10471261235882	-150.20469371556706	239.28400407013936	99.9391494192133
724	3.615	-78.97589134106649	567.3334441881466	276.0174966160968	-173.84252448065905	445.322797615149	16.4915326071823	-152.1287382410148	239.13721100292594	100.06957744159033
725	3.62	-78.99366522863666	567.5406416971249	276.04673836027126	-174.85507241113763	445.4137497722738	16.886435521671473	-154.04573962750263	238.9630879324472	100.15811450599409
726	3.625	-79.01493865650717	567.7487416262408	276.07480978988275	-175.86195602065226	445.48876244447854	17.288707756919944	-155.95397660179754	238.76217372487517	100.20437812018841
727	3.63	-79.03981657958946	567.9575086779482	276.1016109824871	-176.86214672144314	445.5479801382952	17.6976141491897	-157.85174946043898	238.5350636053318	100.20805254628111
728	3.635	-79.06840100949539	568.1667046770748	276.12704214430573	-177.85462494562037	445.5915796086721	18.11240015617031	-159.73738363515537	238.282407190578	100.16888941302844
729	3.64	-79.10079076383123	568.3760892206227	276.15100394559215	-178.83838256605156	445.6197691812023	18.53229410957721	-161.60923316714923	238.00490637403558	100.08670821007108
730	3.645	-79.13708121850341	568.5854203370145	276.1733978602642	-179.81242529660918	445.6327879899768	18.956509525831567	-163.46568408070559	237.70331307174635	99.96139666466564
731	3.65	-79.17736406372836	568.7944551525592	276.1941265085268	-180.77577506349047	445.63090513407155	19.384247466414646	-165.3051576470155	237.37842683819582	99.7929110014687
732	3.655	-79.2217270644338	569.0029505628821	276.21309400119253	-181.72747233936946	445.61441875585945	19.81469893937369	-167.12611352957038	237.03109236121236	99.58127608590543
733	3.66	-79.27025382573213	569.2106639070521	276.23020628439076	-182.66657843222623	445.5836550445057	20.247047333372503	-168.92705280296485	236.6621968453924	99.32658545161362
734	3.665	-79.32302356413697	569.4173536421206	276.2453714833466	-183.5921777208181	445.5389671681621	20.68047087562784	-170.70652083744852	236.27266729370587	99.02900121240123
735	3.67	-79.38011088518154	569.6227800157992	276.2585002439061	-184.5033798289166	445.48073413851887	21.114145105050596	-172.46311004208718	235.86346769709797	98.68875385909381
736	3.675	-79.44158556808415	569.8267057349957	276.2695060704836	-185.39932173062527	445.40935961149887	21.54724535191797	-174.19546245992933	235.4355961420323	98.30614194158113
737	3.68	-79.50751235808976	570.0288966279518	276.2783056591131	-186.27916977932546	445.32527062800784	21.97894921543759	-175.90227220912436	234.9900818460112	97.8815316363034
738	3.685	-79.57795076709749	570.2291222977459	276.2848192242946	-187.1421216530583	445.2289162987578	22.408439030625857	-177.58228776450193	234.5279821311699	97.4153561993507
739	3.69	-79.65295488316474	570.4271567649503	276.28897081834344	-187.9874082094513	445.1207664372878	22.834904316009244	-179.23431407469565	234.05037934606761	96.90811530528703
740	3.695	-79.73257318945525	570.6227790972752	276.2906886419683	-188.81429524362935	445.0013101454018	23.25754419376771	-180.85721451047817	233.55837774579757	96.36037427175683
741	3.7	-79.81684839317525	570.8157740240737	276.28990534483023	-189.622085142912	444.87105435533147	23.67556977407225	-182.44991264056534	233.0531003405068	95.77276316989051
742	3.705	-79.90581726501564	571.0059325336338	276.2865583148637	-190.41011843249396	444.7305223330143	24.088206495523117	-184.0113938317449	232.53568572236054	95.14597582049751
743	3.71	-79.99951048959115	571.1930524512462	276.28058995517586	-191.17777520672655	444.5802521469569	24.49469641377008	-185.54070667078526	232.00728488090235	94.48076867602636
744	3.715	-80.09795252733839	571.3769389961002	276.2719479473767	-191.9244764410686	444.4207951072259	24.89430043059049	-187.0369642061838	231.46905801665616	93.77795958828094
745	3.72	-80.20116148830523	571.5574053151378	276.2605855002391	-192.6496851802484	444.25271417917503	25.28630045591399	-188.49934500841752	230.9221713626862	93.03842646191517
746	3.725	-80.30914901823215	571.7342729920736	276.2464615826312	-193.3529075986755	444.07658237658455	25.670001495513773	-189.92709404795946	230.36779402368143	92.26310579378497
747	3.73	-80.42192019729426	571.9073725298779	276.22954113971883	-194.03369392965658	443.8929811389431	26.044733657333076	-191.3195233909221	229.8070948419589	91.45299109832004
748	3.735	-80.5394734518395	572.0765438051125	276.2097952914867	-194.6916392605051	443.70249869765803	26.4098540696816	-192.67601271278002	229.24123929959202	90.6091312191889
749	3.74	-80.66180047942423	572.2416364926107	276.1872015126905	-195.32638419118152	443.50572843602674	26.76474870481983	-193.99600963120656	228.67138646565803	89.73262852767056
750	3.745	-80.78888618741304	572.4025104590997	276.16174379341095	-195.9376153546606	443.3032672478424	27.10883410174954	-195.27902985963004	228.09868599737428	88.8246370083164
751	3.75	-80.92070864537399	572.5590361244714	276.13341277944846	-196.52506579779083	443.09571389953925	27.441558982346777	-196.52465718367534	227.5242752036478	87.88636023268685
752	3.755	-81.0572390514645	572.7110947895294	276.10220589186673	-197.08851522198242	442.8836674008061	27.762405755309153	-197.73254326319852	226.94927617930125	86.91904922217887
753	3.76	-81.19844171296775	572.8585789291582	276.06812742506355	-197.62779008363583	442.66772538861244	28.07089190274305	-198.90240726314843	226.3747930179611	85.92400020122362
754	3.765	-81.34427404110194	573.0013924499907	276.0311886228255	-198.14276355479336	442.44848252959133	28.366571244589004	-200.03403531699553	225.8019091113008	84.90255224242824
755	3.77	-81.49468656018917	573.139450911776	275.9914077318973	-198.63335534506422	442.2265289457125	28.64903507647498	-201.12727982695225	225.2316845420219	83.85608480556024
756	3.775	-81.6496229312334	573.2726817117868	275.9488100326796	-199.0995313864296	442.00244866815535	28.917913176998965	-202.18205860567093	224.6651535776314	82.78601517262902
757	3.78	-81.8090199899206	573.4010242317427	275.90342784674766	-199.54130338308045	441.7768181242474	29.172874680873804	-203.19835386454034	224.10332227173325	81.6937957817025
758	3.785	-81.97280779901762	573.5244299468633	275.85530052097084	-199.95872822896945	441.55020466227666	29.413628814819486	-204.17621105411104	223.54716617919598	80.58091146251041
759	3.79	-82.14090971510983	573.6428624968104	275.8044743880964	-200.35190729626908	441.3231651189069	29.639925493560842	-205.11573756256143	222.99762819118726	79.44887657732333
